<mxfile host="app.diagrams.net" modified="2024-02-16T22:35:52.614Z" agent="Mozilla/5.0 (Windows NT 10.0; Win64; x64) AppleWebKit/537.36 (KHTML, like Gecko) Chrome/120.0.0.0 Safari/537.36" version="23.1.5" etag="XsU3Ke3QT0OqnDKCK-rz" type="github">
  <diagram name="PÃ¡gina-1" id="0F12LL748H8ZSV1uM5to">
    <mxGraphModel>
      <root>
        <mxCell id="0" />
        <mxCell id="1" parent="0" />
      </root>
    </mxGraphModel>
  </diagram>
</mxfile>
